<?xml version="1.0" standalone="no"?>
<!DOCTYPE svg PUBLIC "-//W3C//DTD SVG 20010904//EN"
 "http://www.w3.org/TR/2001/REC-SVG-20010904/DTD/svg10.dtd">
<svg version="1.0" xmlns="http://www.w3.org/2000/svg"
 width="915.000000pt" height="216.000000pt" viewBox="0 0 915.000000 216.000000"
 preserveAspectRatio="xMidYMid meet">

<g transform="translate(0.000000,216.000000) scale(0.100000,-0.100000)"
fill="#000000" stroke="none">
<path d="M705 1731 c-179 -29 -354 -139 -456 -287 -84 -122 -113 -234 -107
-405 4 -103 9 -136 31 -193 65 -167 182 -298 332 -372 118 -58 210 -78 340
-71 227 12 428 137 542 338 108 189 112 460 9 643 -120 213 -319 341 -546 351
-52 2 -118 0 -145 -4z m200 -384 c26 -7 59 -31 96 -67 47 -47 58 -65 74 -122
18 -70 17 -124 -6 -202 -16 -56 -112 -151 -170 -167 -157 -43 -303 28 -358
175 -63 170 32 353 206 395 41 10 94 6 158 -12z"/>
<path d="M3760 1070 l0 -640 190 0 190 0 0 456 0 456 133 -4 c119 -4 138 -7
189 -32 71 -34 103 -71 124 -143 31 -106 -1 -232 -72 -291 -52 -43 -113 -62
-221 -69 l-93 -6 0 -179 0 -178 28 -11 c34 -14 194 -4 282 18 224 54 395 224
455 453 23 87 24 263 1 349 -55 210 -206 361 -428 424 -95 28 -217 37 -500 37
l-278 0 0 -640z"/>
<path d="M7850 1303 c0 -263 -4 -422 -11 -447 -6 -22 -24 -52 -39 -68 -25 -24
-36 -28 -85 -28 -53 0 -60 3 -96 39 -35 34 -39 44 -39 88 0 97 82 159 171 129
l39 -14 0 189 0 189 -77 0 c-139 0 -246 -44 -340 -138 -63 -62 -93 -108 -120
-182 -64 -174 -19 -372 114 -505 68 -69 145 -110 241 -131 90 -19 135 -18 226
6 135 34 235 111 300 230 58 106 59 117 63 603 l4 447 -175 0 -176 0 0 -407z"/>
<path d="M1947 1370 c-154 -39 -282 -187 -307 -355 -6 -39 -9 -182 -8 -325 l3
-255 173 -3 172 -2 0 274 c0 152 4 286 10 300 10 28 46 42 85 32 39 -10 45
-56 45 -343 l0 -263 170 0 170 0 0 285 c0 299 -5 351 -46 443 -33 75 -123 162
-199 191 -67 26 -205 37 -268 21z"/>
<path d="M2960 1357 c-388 -132 -460 -639 -124 -863 83 -54 160 -76 274 -76
81 -1 105 4 168 28 41 16 87 40 104 54 l30 25 -87 105 c-48 58 -90 109 -95
113 -4 5 -23 -1 -41 -12 -45 -28 -108 -27 -143 0 -81 63 -98 229 -34 322 53
76 177 77 213 2 25 -53 22 -55 -74 -55 -100 0 -101 -1 -101 -87 0 -78 -19 -73
276 -73 l264 0 0 63 c0 133 -45 242 -140 337 -67 67 -142 111 -221 129 -77 18
-197 13 -269 -12z"/>
<path d="M5450 1367 c-82 -23 -144 -61 -211 -127 -82 -82 -125 -164 -140 -273
-22 -161 24 -302 133 -411 72 -71 143 -109 248 -132 123 -28 278 3 380 76 l30
21 -91 109 c-49 60 -94 112 -99 115 -5 3 -24 -4 -42 -15 -64 -39 -138 -19
-179 46 -30 50 -38 167 -15 227 25 65 65 99 125 105 47 4 53 2 86 -31 19 -19
35 -43 35 -53 0 -17 -10 -19 -86 -21 -47 0 -88 -4 -91 -7 -10 -9 -16 -103 -9
-130 l6 -26 267 0 266 0 -5 100 c-4 90 -9 108 -41 174 -49 97 -126 175 -224
223 -70 35 -80 37 -186 40 -70 2 -129 -2 -157 -10z"/>
<path d="M6494 1359 c-130 -41 -256 -160 -304 -286 -31 -81 -39 -228 -15 -309
25 -89 61 -147 131 -214 112 -108 255 -153 411 -130 43 7 94 19 113 27 49 22
120 67 120 75 0 4 -43 59 -96 123 l-96 115 -30 -25 c-44 -37 -106 -35 -153 6
-91 80 -81 289 18 349 62 38 147 17 172 -43 7 -18 12 -35 9 -38 -2 -3 -36 -5
-76 -3 -40 2 -79 -1 -86 -5 -18 -11 -29 -67 -24 -118 l4 -43 271 0 270 0 -6
88 c-3 48 -14 110 -23 137 -48 140 -171 258 -313 299 -77 22 -219 20 -297 -5z"/>
<path d="M8740 1334 c-68 -18 -124 -51 -172 -101 -55 -57 -76 -113 -88 -242
-6 -62 -17 -128 -24 -146 -15 -36 -60 -65 -100 -65 -57 0 -56 3 -56 -191 l0
-179 83 0 c45 0 110 7 142 15 151 40 262 167 294 337 28 150 33 168 49 188 11
13 34 23 60 27 l42 6 0 183 0 184 -87 -1 c-49 0 -113 -7 -143 -15z"/>
</g>
</svg>
